<svg width="633" height="172" viewBox="0 0 633 172" fill="none" xmlns="http://www.w3.org/2000/svg">
<g clip-path="url(#clip0_389_29)">
<path d="M167.402 85.5388C167.402 130.751 130.751 167.402 85.5387 167.402C40.3268 167.402 3.67549 130.751 3.67549 85.5388C3.67549 40.3269 40.3268 3.67554 85.5387 3.67554C130.751 3.67554 167.402 40.3269 167.402 85.5388Z" fill="#1E293B"/>
<path d="M159.986 74.962C159.986 108.732 132.61 136.109 98.8397 136.109C65.0692 136.109 37.6928 108.732 37.6928 74.962C37.6928 41.1916 65.0692 13.8152 98.8397 13.8152C132.61 13.8152 159.986 41.1916 159.986 74.962Z" fill="#7FBED7"/>
<path d="M171.057 85.3349C171.057 85.3352 171.057 85.3352 171.057 85.3349C170.816 88.0902 168.549 90.2694 164.144 91.9662C162.956 92.4239 161.614 91.8943 161.046 90.7543C161.036 90.7345 161.026 90.7148 161.016 90.6951C160.36 89.382 160.995 87.7975 162.367 87.2749C165.143 86.2174 166.03 85.2811 166.064 84.8979C166.137 84.0649 162.69 79.9603 144.499 75.099C129.195 71.0095 108.632 67.6956 86.5963 65.7679C73.6245 64.6329 61.071 64.0598 49.7197 64.0598C41.7887 64.0598 34.444 64.3395 27.9531 64.9032C9.19373 66.5321 5.08687 69.9757 5.01436 70.809C4.99198 71.0646 5.30105 71.6287 6.26637 72.4279C8.06836 73.9205 7.0155 76.8512 4.67488 76.8512C4.09649 76.8512 3.53047 76.6554 3.08774 76.2835C0.848027 74.4037 -0.160729 72.4493 0.0210407 70.3723C0.293695 67.2548 3.15991 64.8744 8.78275 63.0962C13.2909 61.6704 19.595 60.5985 27.5194 59.9105C43.582 58.5158 64.7174 58.8233 87.0333 60.7753C109.35 62.7276 130.217 66.095 145.793 70.2577C153.478 72.3113 159.5 74.4615 163.692 76.6484C168.92 79.3759 171.329 82.2174 171.057 85.3349Z" fill="#232E7A"/>
<path d="M136.817 81.902L114.535 140.39C112.659 145.317 106.692 147.224 102.306 144.3C100.321 142.976 99.0091 140.854 98.713 138.486L96.5853 121.462C96.5853 121.462 96.3213 112.856 92.884 106.241C89.7639 100.236 81.1926 100.175 78.1944 106.241C75.4064 111.882 74.554 120.974 74.554 120.974L72.3651 138.486C72.0691 140.854 70.7576 142.976 68.7718 144.3C64.3856 147.224 58.4196 145.316 56.5431 140.39L34.2616 81.9017C30.8558 72.9615 30.2737 63.1917 32.5943 53.9105L37.0089 36.2524C39.0702 28.0073 47.356 22.9324 55.6376 24.8437L63.9185 26.7546C67.1225 27.494 70.4685 27.1609 73.4962 25.8781C81.3293 22.5595 89.7495 22.5595 97.5827 25.8781C100.611 27.1609 103.956 27.494 107.16 26.7546L115.441 24.8437C123.722 22.9327 132.009 28.0073 134.07 36.2524L138.485 53.9105C140.804 63.1921 140.222 72.9615 136.817 81.902Z" fill="#ECECF1"/>
<path d="M70.0125 140.39C70.2584 141.036 70.5751 141.63 70.949 142.168C70.369 142.999 69.6339 143.725 68.7715 144.3C64.3853 147.224 58.4193 145.316 56.5428 140.39L34.2613 81.9017C30.8554 72.9616 30.2734 63.1918 32.5939 53.9105L37.0085 36.2524C39.0698 28.0073 47.3557 22.9324 55.6373 24.8437L59.4277 25.7184C55.1197 27.5803 51.7025 31.3577 50.4785 36.2524L46.0639 53.9105C43.7437 63.1918 44.3258 72.9616 47.7313 81.9017L70.0125 140.39ZM109.105 138.486L106.978 121.462C106.978 121.462 106.714 112.856 103.276 106.241C101.22 102.284 91.3724 100.584 85.6189 101.716C88.4848 101.766 91.3463 103.282 92.8837 106.241C96.3213 112.856 96.5849 121.462 96.5849 121.462L98.7127 138.486C99.0087 140.854 100.32 142.976 102.306 144.3C105.44 146.389 109.381 146.012 112.06 143.829L112.06 143.828C110.434 142.5 109.368 140.59 109.105 138.486Z" fill="#D3D3D8"/>
<path d="M111.131 82.7177C106.376 78.4514 111.028 71.5846 109.266 58.6011C108.085 49.8972 105.263 47.4817 107.285 43.8891C109.706 39.5871 116.988 37.5305 121.835 39.7321C131.106 43.9432 128.595 62.1292 128.33 63.8948C126.988 72.8543 121.7 84.5203 115.417 84.5364C113.208 84.542 111.563 83.1059 111.131 82.7177Z" fill="#FFF5F5"/>
<path d="M76.8512 63.4858C76.8512 64.8698 75.7292 65.9918 74.3452 65.9918H72.6745V67.6625C72.6745 69.0465 71.5525 70.1685 70.1685 70.1685C68.7845 70.1685 67.6625 69.0465 67.6625 67.6625V65.9918H65.9918C64.6078 65.9918 63.4858 64.8698 63.4858 63.4858C63.4858 62.1018 64.6078 60.9798 65.9918 60.9798H67.6625V59.3091C67.6625 57.9251 68.7845 56.8031 70.1685 56.8031C71.5525 56.8031 72.6745 57.9251 72.6745 59.3091V60.9798H74.3452C75.7292 60.9798 76.8512 62.1018 76.8512 63.4858Z" fill="#2B3894"/>
<path d="M70.1685 82.7628V94.3289C70.1685 96.458 68.4423 98.1842 66.3132 98.1842H54.7471V109.75C54.7471 111.879 53.021 113.606 50.8919 113.606H39.3258C37.1966 113.606 35.4705 111.879 35.4705 109.75V98.1842H23.9034C21.7743 98.1842 20.0481 96.458 20.0481 94.3289V82.7628C20.0481 80.6333 21.7743 78.9072 23.9034 78.9072H35.4695V67.3411C35.4695 65.2116 37.1956 63.4858 39.3248 63.4858H50.8909C53.02 63.4858 54.7461 65.212 54.7461 67.3411V78.9072H66.3122C68.4423 78.9075 70.1685 80.6337 70.1685 82.7628ZM171.056 85.3353C170.784 88.4528 167.918 90.8328 162.295 92.6111C157.787 94.0369 151.483 95.1088 143.558 95.7968C136.932 96.3721 129.44 96.6578 121.36 96.6578C109.854 96.6578 97.1543 96.0788 84.0445 94.9317C81.2541 94.6874 78.4861 94.4215 75.7486 94.1341C74.4745 94.0004 73.5102 92.9225 73.5102 91.6418C73.5102 90.1556 74.7953 88.9951 76.2735 89.1501C78.9813 89.4342 81.7199 89.6974 84.4815 89.939C106.517 91.867 127.343 92.1737 143.125 90.8038C161.884 89.1749 165.991 85.7313 166.064 84.8979C166.184 83.5193 167.397 82.5015 168.779 82.6201C170.157 82.7411 171.177 83.9563 171.056 85.3353ZM15.0899 76.9786C6.81937 73.8156 4.95991 71.4232 5.0137 70.8091C5.13432 69.4305 4.11454 68.2152 2.73556 68.0942C1.35926 67.975 0.141334 68.9934 0.0207114 70.372C-0.251943 73.4895 2.15718 76.331 7.38573 79.0589C9.07078 79.938 11.0512 80.8111 13.3166 81.6742C14.9532 82.2977 16.7078 81.0804 16.7078 79.3292V79.3212C16.7078 78.2807 16.0622 77.3505 15.0899 76.9786Z" fill="#3D4EC6"/>
<path d="M70.1685 82.7628V94.3289C70.1685 96.458 68.4423 98.1842 66.3132 98.1842H54.7471V109.75C54.7471 111.879 53.021 113.606 50.8919 113.606H45.1083V63.4859H50.8915C53.0206 63.4859 54.7468 65.212 54.7468 67.3411V78.9072H66.3129C68.4423 78.9076 70.1685 80.6337 70.1685 82.7628ZM70.1685 43.4377C70.1685 44.8217 69.0465 45.9437 67.6625 45.9437H65.9918V47.6144C65.9918 48.9984 64.8698 50.1204 63.4858 50.1204C62.1018 50.1204 60.9798 48.9984 60.9798 47.6144V45.9437H59.3091C57.9251 45.9437 56.8031 44.8217 56.8031 43.4377C56.8031 42.0537 57.9251 40.9317 59.3091 40.9317H60.9798V39.261C60.9798 37.877 62.1018 36.755 63.4858 36.755C64.8698 36.755 65.9918 37.877 65.9918 39.261V40.9317H67.6625C69.0465 40.9317 70.1685 42.0537 70.1685 43.4377Z" fill="#5766CE"/>
</g>
<path d="M214.422 105.608V69.8744C214.422 60.392 219.163 55.6508 228.646 55.6508H250.427C259.909 55.6508 264.65 60.392 264.65 69.8744V105.608C264.65 115.09 259.909 119.831 250.427 119.831H228.646C219.163 119.831 214.422 115.09 214.422 105.608ZM222.231 69.0411V106.441C222.231 110.653 224.344 112.758 228.568 112.758H250.504C254.729 112.758 256.841 110.653 256.841 106.441V69.0411C256.841 64.8296 254.729 62.7238 250.504 62.7238H228.568C224.344 62.7238 222.231 64.8296 222.231 69.0411ZM278.796 105.879V85.4157C278.796 76.1142 283.447 71.4634 292.749 71.4634H311.352V51H318.793V119.831H292.749C283.447 119.831 278.796 115.181 278.796 105.879ZM286.238 84.4855V106.809C286.238 111.15 288.408 113.32 292.749 113.32H311.352V77.9745H292.749C288.408 77.9745 286.238 80.1448 286.238 84.4855ZM332.931 105.879V85.4157C332.931 76.1142 337.582 71.4634 346.884 71.4634H359.906C369.207 71.4634 373.858 76.1142 373.858 85.4157V105.879C373.858 115.181 369.207 119.831 359.906 119.831H346.884C337.582 119.831 332.931 115.181 332.931 105.879ZM340.373 84.4855V106.809C340.373 111.15 342.543 113.32 346.884 113.32H359.906C364.247 113.32 366.417 111.15 366.417 106.809V84.4855C366.417 80.1448 364.247 77.9745 359.906 77.9745H346.884C342.543 77.9745 340.373 80.1448 340.373 84.4855ZM395.43 119.831H387.989V71.4634H414.033C423.335 71.4634 427.985 76.1142 427.985 85.4157V119.831H420.544V84.4855C420.544 80.1448 418.374 77.9745 414.033 77.9745H395.43V119.831ZM442.128 105.879V55.6508H449.569V71.4634H467.242V77.9745H449.569V106.809C449.569 111.15 451.739 113.32 456.08 113.32H468.172V117.041L464.451 119.831H456.08C446.778 119.831 442.128 115.181 442.128 105.879ZM478.221 105.879V85.4157C478.221 76.1142 482.872 71.4634 492.174 71.4634H505.196C514.497 71.4634 519.148 76.1142 519.148 85.4157V105.879C519.148 115.181 514.497 119.831 505.196 119.831H492.174C482.872 119.831 478.221 115.181 478.221 105.879ZM485.663 84.4855V106.809C485.663 111.15 487.833 113.32 492.174 113.32H505.196C509.537 113.32 511.707 111.15 511.707 106.809V84.4855C511.707 80.1448 509.537 77.9745 505.196 77.9745H492.174C487.833 77.9745 485.663 80.1448 485.663 84.4855ZM535.604 119.831L531.418 116.576V112.758H560.059C564.284 112.758 566.396 110.653 566.396 106.441V98.9029C566.396 95.3632 564.814 93.2832 561.648 92.6631L541.65 88.5743C534.829 87.2179 531.418 82.664 531.418 74.9127V69.8744C531.418 60.392 536.16 55.6508 545.642 55.6508H568.16L572.345 58.9063V62.7238H545.565C541.34 62.7238 539.228 64.8296 539.228 69.0411V75.3778C539.228 78.9046 540.81 80.9781 543.976 81.5982L563.974 85.6095C570.795 86.966 574.206 91.5521 574.206 99.368V105.608C574.206 115.09 569.464 119.831 559.982 119.831H535.604ZM595.967 119.831H588.158V55.6508H618.582C628.064 55.6508 632.805 60.392 632.805 69.8744V81.9664C632.805 91.4617 628.064 96.2094 618.582 96.2094H595.967V119.831ZM595.967 62.7238V89.1363H618.659C622.884 89.1363 624.996 87.0305 624.996 82.819V69.0411C624.996 64.8296 622.884 62.7238 618.659 62.7238H595.967Z" fill="#1E293B"/>
<defs>
<clipPath id="clip0_389_29">
<rect width="171.077" height="171.077" fill="white"/>
</clipPath>
</defs>
</svg>
